<svg fill="none" height="25" viewBox="0 0 169 25" width="169" xmlns="http://www.w3.org/2000/svg"><g fill="#ef4562"><path d="m21.8103 13.6345-3.7507-12.962442h-10.40726v2.080872h.98832c1.23177 0 2.25224.71735 2.62684 2.04465l5.7318 19.75462h5.2218l2.559-8.7691-.0362-.0319c-1.67-.0001-2.4909-.6141-2.9336-2.1167z"/><path d="m42.8612 22.4702c-1.2277 0-2.2163-.817-2.591-2.0805l-5.7317-19.718802h-7.9838l6.9234 23.880202h10.3714v-2.0809z"/><path d="m.34375 22.4657v2.0885h9.22341v-.004-2.0805-.004z"/></g><path d="m69.2061 8.48231-4.02 11.33999h-1.0822l-4.2723-11.33999-1.0546 8.74359c-.0271.1623-.045.3965-.045.5045 0 1.0553.4597 1.2715 2.0095 1.3524v.7392h-4.8938v-.7392c1.2075-.0629 1.613-.2971 1.7392-1.2442l1.3345-10.54596c.1441-1.14461-.4054-1.47812-1.8032-1.56796v-.71283h4.7866c.045.46046.1441.82084.3153 1.28949l3.4523 9.20326 3.1999-9.23039c.1712-.45969.2974-.8019.3335-1.26236h4.7049v.71283c-1.3609.08984-1.9107.4236-1.7574 1.56796l1.2888 10.54596c.1261.9921.5677 1.1813 1.7399 1.2442v.7392h-6.8411v-.7392c1.46-.0811 1.9647-.2971 1.9647-1.3524 0-.1262-.0182-.3422-.0361-.5045zm15.2601 8.99599c0 .721.1712 1.1812.7036 1.1812.3153 0 .613-.0991.8472-.2071l.1262.4594c-.6128.7211-1.4149 1.1265-2.3888 1.1265-1.1715 0-1.9107-.7031-2.118-1.8662-.6765.8928-1.7761 1.8211-3.3261 1.8211-1.6949 0-2.8124-1.0363-2.8124-2.7315 0-1.7934 1.2887-2.56 2.8756-3.1277l3.1999-1.1625v-1.7851c0-1.22546-.4062-2.09058-1.4876-2.09058-.9913 0-1.5861.25212-1.9015.6939.6578.15306 1.0364.67598 1.0364 1.33378 0 .9109-.6309 1.5057-1.6048 1.5057-.9102 0-1.4871-.5945-1.4871-1.5236 0-1.77532 1.8203-2.66808 4.1912-2.66808 2.6862 0 4.1462.9739 4.1462 3.47098zm-2.8928.1891v-3.9207l-1.8211.721c-.8922.3604-1.4599.8298-1.4599 2.0103 0 1.1085.5047 1.8654 1.6491 1.8654.6127 0 1.0363-.2342 1.6319-.676zm4.9122 1.3345-.1351-2.9204h.784c.4686 1.8385 1.5237 3.2181 3.1548 3.2181 1.1454 0 1.9924-.5319 1.9924-1.6949 0-1.1446-.7661-1.5861-2.4339-2.181-2.2447-.7847-3.4072-1.6767-3.4072-3.6243 0-2.13587 1.6048-3.36188 3.912-3.36188 1.3795 0 2.5421.34323 3.4522.91068v2.5603h-.721c-.3604-1.5058-1.2257-2.74945-2.7312-2.74945-1.0725 0-1.7124.63092-1.7124 1.56795 0 .9463.6581 1.4154 2.289 2.0284 2.2808.784 3.6146 1.6491 3.6146 3.7226 0 2.2447-1.6673 3.5605-4.2724 3.5605-1.6132-.0002-2.9206-.4238-3.7858-1.0366zm12.6103-10.37498h2.7581v.95547h-2.7581v7.02181c0 1.2705.4865 1.8211 1.4871 1.8211.568 0 1.037-.1899 1.56-.5685l.279.3604c-.676 1.055-1.74 1.8211-3.2811 1.8211-1.7131 0-2.9836-.9104-2.9836-3.2811v-7.17481h-1.3159v-.45073c1.46-.67648 2.6858-1.83902 3.5964-3.236h.6578v2.73126zm12.7911 4.20938v.4868h-6.887c-.081 2.9473 1.424 4.7229 3.498 4.7229 1.442 0 2.388-.631 3.154-1.7303l.316.1894c-.532 2.0914-2.074 3.5334-4.49 3.5334-3.064 0-5.119-2.2628-5.119-5.5075 0-3.5964 2.326-6.09348 5.209-6.09348 2.831-.00026 4.319 1.86588 4.319 4.39878zm-6.824-.2703h4.192c0-2.0102-.523-3.36191-1.903-3.36191-1.397-.00025-2.136 1.41461-2.289 3.36191zm28.132-6.51703.045 3.38036h-.829c-.486-2.43385-1.73-3.74074-3.786-3.74074-2.902 0-4.236 2.89354-4.236 6.49911 0 3.9299 1.55 6.9404 4.425 6.9404 1.993 0 3.345-1.2531 4.066-4.3181h.865l-.334 3.9757c-1.225.7839-2.884 1.2526-4.867 1.2526-4.597 0-7.436-2.8754-7.436-7.2381 0-4.93089 3.281-8.0228 7.436-8.0228 1.884 0 3.444.45969 4.651 1.27157zm5.337 12.15033c0 .7397.315.8656 1.316.9288v.6942h-5.57v-.6942c.973-.0629 1.315-.1891 1.315-.9288v-11.26703l-1.27-.65806v-.44152l3.74-1.01894h.469zm7.76-.5409v-3.9119l-1.82.721c-.866.3335-1.442.8206-1.442 2.0102 0 1.0996.513 1.8654 1.631 1.8654.613.0003 1.037-.2339 1.631-.6847zm4.922 1.3435-.126-2.9204h.784c.46 1.8385 1.523 3.2181 3.146 3.2181 1.145 0 2.019-.5319 2.019-1.6949 0-1.1446-.784-1.5861-2.461-2.181-2.244-.7847-3.407-1.6767-3.407-3.6243 0-2.13587 1.604-3.36188 3.939-3.36188 1.352 0 2.515.34323 3.425.91068v2.5603h-.721c-.351-1.5058-1.226-2.74945-2.704-2.74945-1.1 0-1.74.63092-1.74 1.56795 0 .9463.659 1.4154 2.29 2.0284 2.289.784 3.641 1.6491 3.641 3.7226 0 2.2447-1.694 3.5605-4.299 3.5605-1.605-.0002-2.921-.4238-3.786-1.0366zm9.167 0-.108-2.9204h.784c.46 1.8385 1.541 3.2181 3.155 3.2181 1.136 0 2.01-.5319 2.01-1.6949 0-1.1446-.802-1.5861-2.433-2.181-2.272-.7847-3.435-1.6767-3.435-3.6243 0-2.13587 1.613-3.36188 3.939-3.36188 1.352 0 2.515.34323 3.434.91068v2.5603h-.721c-.343-1.5058-1.235-2.74945-2.713-2.74945-1.1 0-1.713.63092-1.713 1.56795 0 .9463.631 1.4154 2.263 2.0284 2.307.784 3.623 1.6491 3.623 3.7226 0 2.2447-1.676 3.5605-4.281 3.5605-1.587-.0002-2.92-.4238-3.804-1.0366zm-11.177-1.5236c0 .721.162 1.1812.694 1.1812.315 0 .613-.0991.847-.2071l.127.4594c-.614.7211-1.416 1.1265-2.389 1.1265-1.163 0-1.911-.7031-2.119-1.8662-.676.8928-1.775 1.8211-3.326 1.8211-1.694 0-2.812-1.0363-2.812-2.7315 0-1.7934 1.289-2.56 2.875-3.1277l3.2-1.1625v-1.7851c0-1.22546-.406-2.09058-1.478-2.09058-1 0-1.596.25212-1.911.6939.658.15306 1.037.67598 1.037 1.33378 0 .9109-.631 1.5057-1.605 1.5057-.91 0-1.487-.5945-1.487-1.5236 0-1.77532 1.821-2.66808 4.191-2.66808 2.696 0 4.156.9739 4.156 3.47098zm-31.711-7.64354c0 1.03614.613 1.69414 1.542 1.69414 1.018 0 1.658-.658 1.658-1.58613 0-.95547-.577-1.50576-1.397-1.50576-1.145 0-1.884.80266-2.713 3.13669l.081-3.13669h-.487l-3.786 1.14513v.39646l1.271.7661v7.4543c0 .7397-.342.8656-1.316.9289v.6941h6.013v-.6941c-1.29-.108-1.776-.2342-1.776-1.0822v-5.4349c.468-1.3163 1.208-2.2265 2.433-2.94753z" fill="#fff"/></svg>