<svg width="326" height="115" viewBox="0 0 326 115" fill="none" xmlns="http://www.w3.org/2000/svg">
<path d="M21.606 0.739996V8.58H15.236V51H6.48602V8.58H0.116016V0.739996H21.606ZM38.4164 21.11V0.739996H47.1664V51H38.4164V28.88H32.8864V51H24.1364V0.739996H32.8864V21.11H38.4164ZM50.7966 51V0.739996H68.2966V8.58H59.4066V21.11H67.1066V28.88H59.4066V43.16H68.2966V51H50.7966ZM94.2644 0.739996L86.3544 30.28V51H77.5344V30.07L69.6944 0.739996H78.5844L82.1544 17.96H82.2944L85.7244 0.739996H94.2644ZM104.322 0.739996H113.072V51H104.322V0.739996ZM131.745 51L124.605 20.34H124.465L124.605 30.07V51H116.695V0.739996H125.655L131.325 27.27H131.465L131.325 16.7V0.739996H139.235V51H131.745ZM152.957 44.07C153.657 44.07 154.193 43.8133 154.567 43.3C154.94 42.7867 155.127 42.0167 155.127 40.99V35.46C155.127 34.5267 155.01 33.78 154.777 33.22C154.543 32.66 154.1 32.0533 153.447 31.4L146.167 25.31C144.72 24.19 143.693 23 143.087 21.74C142.527 20.48 142.247 18.9167 142.247 17.05V10.12C142.247 7.08666 143.227 4.68333 145.187 2.91C147.147 1.09 149.783 0.179999 153.097 0.179999C156.41 0.179999 159.023 1.06667 160.937 2.84C162.85 4.61333 163.807 7.04 163.807 10.12V18.94H155.337V10.75C155.337 9.72333 155.15 8.95333 154.777 8.44C154.403 7.92666 153.867 7.67 153.167 7.67C152.42 7.67 151.86 7.95 151.487 8.51C151.113 9.02333 150.927 9.77 150.927 10.75V15.09C150.927 16.0233 151.043 16.77 151.277 17.33C151.51 17.89 151.953 18.4967 152.607 19.15L159.887 25.24C161.333 26.36 162.36 27.5733 162.967 28.88C163.573 30.14 163.877 31.68 163.877 33.5V41.62C163.877 44.6533 162.873 47.08 160.867 48.9C158.86 50.6733 156.2 51.56 152.887 51.56C149.573 51.56 146.96 50.6733 145.047 48.9C143.133 47.1267 142.177 44.7 142.177 41.62V31.89H150.717V40.99C150.717 41.97 150.903 42.74 151.277 43.3C151.65 43.8133 152.21 44.07 152.957 44.07ZM166.802 0.739996H178.842C182.109 0.739996 184.606 1.58 186.332 3.26C188.106 4.94 188.992 7.34333 188.992 10.47V19.64C188.992 22.7667 188.106 25.1933 186.332 26.92C184.606 28.6 182.109 29.44 178.842 29.44H175.552V51H166.802V0.739996ZM177.862 8.3H175.552V21.81H177.862C178.656 21.81 179.239 21.5767 179.612 21.11C180.032 20.5967 180.242 19.8733 180.242 18.94V11.17C180.242 10.2367 180.032 9.53666 179.612 9.07C179.192 8.55667 178.609 8.3 177.862 8.3ZM191.754 0.739996H200.504V51H191.754V0.739996ZM214.627 29.3H212.877V51H204.127V0.739996H216.167C219.48 0.739996 222 1.55666 223.727 3.19C225.453 4.77666 226.317 7.11 226.317 10.19V18.87C226.317 20.4567 225.943 21.8333 225.197 23C224.45 24.1667 223.377 25.0067 221.977 25.52C223.377 26.08 224.427 26.9667 225.127 28.18C225.873 29.3467 226.247 30.77 226.247 32.45V44.35C226.247 45.9833 226.293 47.3367 226.387 48.41C226.527 49.4833 226.737 50.3467 227.017 51H218.337C218.057 50.3467 217.847 49.53 217.707 48.55C217.567 47.5233 217.497 46.1933 217.497 44.56V32.66C217.497 31.4933 217.263 30.6533 216.797 30.14C216.33 29.58 215.607 29.3 214.627 29.3ZM217.567 18.94V11.17C217.567 10.2367 217.357 9.53666 216.937 9.07C216.517 8.55667 215.933 8.3 215.187 8.3H212.877V21.81H215.187C215.98 21.81 216.563 21.5767 216.937 21.11C217.357 20.5967 217.567 19.8733 217.567 18.94ZM229.556 51V0.739996H247.056V8.58H238.166V21.11H245.866V28.88H238.166V43.16H247.056V51H229.556ZM278.569 0.739996V8.58H272.199V51H263.449V8.58H257.079V0.739996H278.569ZM295.379 21.11V0.739996H304.129V51H295.379V28.88H289.849V51H281.099V0.739996H289.849V21.11H295.379ZM307.759 51V0.739996H325.259V8.58H316.369V21.11H324.069V28.88H316.369V43.16H325.259V51H307.759ZM28.7099 114H19.6799L17.5799 84.18H17.4399L15.2699 114H6.23992L1.12992 63.74H10.1599L11.6299 85.16L12.1899 94.82H12.3299L14.4299 63.74H21.0099L23.1799 94.82H23.3199L23.8799 85.23L25.3499 63.74H33.8199L28.7099 114ZM46.059 63.18C49.419 63.18 52.1023 64.09 54.109 65.91C56.1157 67.73 57.119 70.1567 57.119 73.19V104.55C57.119 107.583 56.1157 110.01 54.109 111.83C52.1023 113.65 49.419 114.56 46.059 114.56C42.699 114.56 39.9923 113.65 37.939 111.83C35.9323 110.01 34.929 107.583 34.929 104.55V73.19C34.929 70.1567 35.9323 67.73 37.939 65.91C39.9923 64.09 42.699 63.18 46.059 63.18ZM46.059 70.67C45.3123 70.67 44.729 70.95 44.309 71.51C43.889 72.0233 43.679 72.77 43.679 73.75V103.99C43.679 104.97 43.889 105.74 44.309 106.3C44.729 106.813 45.3123 107.07 46.059 107.07C46.8057 107.07 47.3657 106.813 47.739 106.3C48.159 105.74 48.369 104.97 48.369 103.99V73.75C48.369 72.77 48.159 72.0233 47.739 71.51C47.3657 70.95 46.8057 70.67 46.059 70.67ZM70.9352 92.3H69.1852V114H60.4352V63.74H72.4752C75.7886 63.74 78.3086 64.5567 80.0352 66.19C81.7619 67.7767 82.6252 70.11 82.6252 73.19V81.87C82.6252 83.4567 82.2519 84.8333 81.5052 86C80.7586 87.1667 79.6852 88.0067 78.2852 88.52C79.6852 89.08 80.7352 89.9667 81.4352 91.18C82.1819 92.3467 82.5552 93.77 82.5552 95.45V107.35C82.5552 108.983 82.6019 110.337 82.6952 111.41C82.8352 112.483 83.0452 113.347 83.3252 114H74.6452C74.3652 113.347 74.1552 112.53 74.0152 111.55C73.8752 110.523 73.8052 109.193 73.8052 107.56V95.66C73.8052 94.4933 73.5719 93.6533 73.1052 93.14C72.6386 92.58 71.9152 92.3 70.9352 92.3ZM73.8752 81.94V74.17C73.8752 73.2367 73.6652 72.5367 73.2452 72.07C72.8252 71.5567 72.2419 71.3 71.4952 71.3H69.1852V84.81H71.4952C72.2886 84.81 72.8719 84.5767 73.2452 84.11C73.6652 83.5967 73.8752 82.8733 73.8752 81.94ZM85.8649 114V63.74H94.4749V106.16H103.365V114H85.8649ZM105.894 63.74H117.374C120.688 63.74 123.301 64.65 125.214 66.47C127.128 68.2433 128.084 70.67 128.084 73.75V103.99C128.084 107.07 127.128 109.52 125.214 111.34C123.301 113.113 120.688 114 117.374 114H105.894V63.74ZM116.954 71.3H114.644V106.44H116.954C117.701 106.44 118.284 106.207 118.704 105.74C119.124 105.227 119.334 104.503 119.334 103.57V74.17C119.334 73.2367 119.124 72.5367 118.704 72.07C118.284 71.5567 117.701 71.3 116.954 71.3ZM139.044 114H130.364V104.27H139.044V114Z" fill="white"/>
<path d="M165.583 114L158.443 83.34H158.303L158.443 93.07V114H150.533V63.74H159.493L165.163 90.27H165.303L165.163 79.7V63.74H173.073V114H165.583ZM187.495 63.18C190.855 63.18 193.538 64.09 195.545 65.91C197.551 67.73 198.555 70.1567 198.555 73.19V104.55C198.555 107.583 197.551 110.01 195.545 111.83C193.538 113.65 190.855 114.56 187.495 114.56C184.135 114.56 181.428 113.65 179.375 111.83C177.368 110.01 176.365 107.583 176.365 104.55V73.19C176.365 70.1567 177.368 67.73 179.375 65.91C181.428 64.09 184.135 63.18 187.495 63.18ZM187.495 70.67C186.748 70.67 186.165 70.95 185.745 71.51C185.325 72.0233 185.115 72.77 185.115 73.75V103.99C185.115 104.97 185.325 105.74 185.745 106.3C186.165 106.813 186.748 107.07 187.495 107.07C188.241 107.07 188.801 106.813 189.175 106.3C189.595 105.74 189.805 104.97 189.805 103.99V73.75C189.805 72.77 189.595 72.0233 189.175 71.51C188.801 70.95 188.241 70.67 187.495 70.67ZM227.294 114H218.264L216.164 84.18H216.024L213.854 114H204.824L199.714 63.74H208.744L210.214 85.16L210.774 94.82H210.914L213.014 63.74H219.594L221.764 94.82H221.904L222.464 85.23L223.934 63.74H232.404L227.294 114ZM265.368 63.74L257.458 93.28V114H248.638V93.07L240.798 63.74H249.688L253.258 80.96H253.398L256.828 63.74H265.368ZM276.293 63.18C279.653 63.18 282.337 64.09 284.343 65.91C286.35 67.73 287.353 70.1567 287.353 73.19V104.55C287.353 107.583 286.35 110.01 284.343 111.83C282.337 113.65 279.653 114.56 276.293 114.56C272.933 114.56 270.227 113.65 268.173 111.83C266.167 110.01 265.163 107.583 265.163 104.55V73.19C265.163 70.1567 266.167 67.73 268.173 65.91C270.227 64.09 272.933 63.18 276.293 63.18ZM276.293 70.67C275.547 70.67 274.963 70.95 274.543 71.51C274.123 72.0233 273.913 72.77 273.913 73.75V103.99C273.913 104.97 274.123 105.74 274.543 106.3C274.963 106.813 275.547 107.07 276.293 107.07C277.04 107.07 277.6 106.813 277.973 106.3C278.393 105.74 278.603 104.97 278.603 103.99V73.75C278.603 72.77 278.393 72.0233 277.973 71.51C277.6 70.95 277.04 70.67 276.293 70.67ZM301.45 107.07C302.196 107.07 302.756 106.813 303.13 106.3C303.55 105.74 303.76 104.97 303.76 103.99V63.74H312.51V104.55C312.51 107.583 311.506 110.01 309.5 111.83C307.493 113.65 304.81 114.56 301.45 114.56C298.09 114.56 295.383 113.65 293.33 111.83C291.323 110.01 290.32 107.583 290.32 104.55V63.74H299.07V103.99C299.07 104.97 299.28 105.74 299.7 106.3C300.12 106.813 300.703 107.07 301.45 107.07ZM323.409 114H314.729V104.27H323.409V114Z" fill="#EF4562"/>
</svg>
