<?xml version="1.0" encoding="UTF-8"?>
<svg width="22px" height="20px" viewBox="0 0 22 20" version="1.1" xmlns="http://www.w3.org/2000/svg" xmlns:xlink="http://www.w3.org/1999/xlink">
    <!-- Generator: Sketch 54.1 (76490) - https://sketchapp.com -->
    <title>icon / status / warning</title>
    <desc>Created with Sketch.</desc>
    <g id="Page-1" stroke="none" stroke-width="1" fill="none" fill-rule="evenodd">
        <g id="SignUp_HalfPage-error" transform="translate(-323.000000, -747.000000)" fill="#ffae0c" fill-rule="nonzero">
            <g id="Group-3-Copy-2" transform="translate(312.000000, 704.000000)">
                <g id="Group-4" transform="translate(0.000000, 29.000000)">
                    <g id="Stacking-Group" transform="translate(10.000000, 13.000000)">
                        <g id="icon-/-status-/-warning" transform="translate(0.000000, 1.000000)">
                            <path d="M12.8741573,0.514357069 L22.8741573,18.5143571 C23.2444524,19.1808883 22.7624843,20 22,20 L2,20 C1.23751571,20 0.755547619,19.1808883 1.12584272,18.5143571 L11.1258427,0.514357069 C11.506848,-0.171452356 12.493152,-0.171452356 12.8741573,0.514357069 Z M3.69951446,18 L20.3004855,18 L12,3.05912603 L3.69951446,18 Z M12,16 C11.4477153,16 11,15.5522847 11,15 C11,14.4477153 11.4477153,14 12,14 C12.5522847,14 13,14.4477153 13,15 C13,15.5522847 12.5522847,16 12,16 Z M11,8 C11,7.44771525 11.4477153,7 12,7 C12.5522847,7 13,7.44771525 13,8 L13,12 C13,12.5522847 12.5522847,13 12,13 C11.4477153,13 11,12.5522847 11,12 L11,8 Z" id="🎨-icon-color"></path>
                        </g>
                    </g>
                </g>
            </g>
        </g>
    </g>
</svg>