<svg width="171" height="130" viewBox="0 0 171 130" fill="none" xmlns="http://www.w3.org/2000/svg">
<g clip-path="url(#clip0)">
<path d="M84.666 44.5814L71.7683 0.00389222H35.9679V7.16168H39.3665C43.6021 7.16168 47.1137 9.62934 48.4023 14.191L68.1206 82.1258H86.0831L94.8853 51.9689L94.7607 51.8599C89.0145 51.8599 86.1882 49.7464 84.666 44.5814Z" fill="#FFFEF2"/>
<path d="M157.065 74.9641C152.841 74.9641 149.442 72.1539 148.154 67.8102L128.439 0H100.978L124.792 82.1219H160.464V74.9641H157.065Z" fill="#FFFEF2"/>
<path d="M10.8227 74.9485V82.1296H42.5471V74.9485H10.8227Z" fill="#FFFEF2"/>
<path d="M20.3178 112.427L14.2018 129.669H12.5551L6.05758 112.427L4.45365 125.722C4.41082 125.968 4.38357 126.326 4.38357 126.489C4.38357 128.093 5.08432 128.424 7.43961 128.544V129.669H0V128.544C1.83752 128.447 2.45262 128.093 2.64727 126.653L4.67555 110.617C4.89356 108.877 4.06045 108.367 1.93484 108.231V107.149H9.21484C9.28492 107.849 9.43285 108.398 9.69369 109.11L14.9454 123.107L19.8117 109.072C20.0726 108.371 20.2633 107.853 20.3178 107.153H27.4732V108.235C25.4021 108.371 24.569 108.877 24.7987 110.621L26.7569 126.657C26.9477 128.167 27.6212 128.451 29.4042 128.548V129.673H19.002V128.548C21.221 128.424 21.9918 128.097 21.9918 126.493C21.9918 126.302 21.9646 125.972 21.9373 125.726L20.3178 112.427ZM43.5282 126.108C43.5282 127.205 43.789 127.902 44.5988 127.902C45.0776 127.902 45.5292 127.75 45.8874 127.587L46.0781 128.287C45.1477 129.385 43.9253 130 42.4459 130C40.6629 130 39.5417 128.93 39.2263 127.163C38.1986 128.521 36.5246 129.93 34.1693 129.93C31.5921 129.93 29.8908 128.354 29.8908 125.777C29.8908 123.049 31.849 121.885 34.2627 121.021L39.129 119.254V116.541C39.129 114.676 38.51 113.361 36.8672 113.361C35.3606 113.361 34.4535 113.746 33.9746 114.416C34.9751 114.649 35.5513 115.443 35.5513 116.443C35.5513 117.829 34.5936 118.732 33.1104 118.732C31.7244 118.732 30.8485 117.829 30.8485 116.416C30.8485 113.715 33.6165 112.36 37.2253 112.36C41.313 112.36 43.5321 113.843 43.5321 117.638V126.108H43.5282ZM39.129 126.396V120.433L36.3611 121.531C35.0024 122.079 34.142 122.792 34.142 124.586C34.142 126.271 34.909 127.423 36.6492 127.423C37.5796 127.423 38.2219 127.065 39.129 126.396ZM46.5998 128.424L46.3934 123.983H47.5847C48.2971 126.777 49.9011 128.875 52.3849 128.875C54.125 128.875 55.4136 128.066 55.4136 126.299C55.4136 124.559 54.2496 123.885 51.7114 122.982C48.2971 121.787 46.5297 120.433 46.5297 117.471C46.5297 114.225 48.9707 112.357 52.4783 112.357C54.5766 112.357 56.3441 112.878 57.73 113.742V117.634H56.6322C56.0832 115.346 54.7674 113.454 52.4783 113.454C50.8471 113.454 49.8738 114.412 49.8738 115.84C49.8738 117.28 50.8744 117.993 53.3542 118.923C56.8229 120.114 58.8512 121.429 58.8512 124.582C58.8512 127.996 56.3168 129.996 52.3537 129.996C49.905 130 47.9156 129.358 46.5998 128.424ZM69.9775 112.649V114.1H65.7808V124.777C65.7808 126.707 66.5205 127.544 68.0427 127.544C68.9069 127.544 69.6194 127.256 70.4136 126.68L70.8379 127.229C69.8101 128.832 68.1906 129.996 65.847 129.996C63.2426 129.996 61.3077 128.61 61.3077 125.006V114.096H59.3067V113.411C61.5257 112.384 63.3905 110.613 64.7764 108.492H65.7769V112.649H69.9775ZM85.2344 119.047V119.787H74.7582C74.6336 124.271 76.9227 126.968 80.0761 126.968C82.2679 126.968 83.7083 126.01 84.8762 124.337L85.3551 124.625C84.5453 127.805 82.2017 129.996 78.5267 129.996C73.8667 129.996 70.7406 126.555 70.7406 121.62C70.7406 116.151 74.2794 112.353 78.6629 112.353C82.9725 112.357 85.2344 115.198 85.2344 119.047ZM74.8555 118.639H81.2323C81.2323 115.583 80.4381 113.524 78.3398 113.524C76.2142 113.524 75.0891 115.677 74.8555 118.639ZM117.648 108.725L117.718 113.867H116.457C115.717 110.165 113.825 108.18 110.699 108.18C106.284 108.18 104.256 112.578 104.256 118.063C104.256 124.037 106.615 128.618 110.987 128.618C114.016 128.618 116.075 126.711 117.169 122.052H118.485L117.979 128.097C116.114 129.288 113.591 130 110.574 130C103.582 130 99.2649 125.629 99.2649 118.993C99.2649 111.493 104.256 106.791 110.574 106.791C113.436 106.795 115.81 107.491 117.648 108.725ZM125.761 127.201C125.761 128.326 126.24 128.517 127.762 128.614V129.669H119.291V128.614C120.77 128.517 121.292 128.326 121.292 127.201V110.068L119.361 109.068V108.394L125.049 106.845H125.761V127.201ZM137.569 126.38V120.433L134.801 121.531C133.485 122.037 132.605 122.78 132.605 124.586C132.605 126.26 133.387 127.423 135.089 127.423C136.019 127.423 136.662 127.065 137.569 126.38ZM145.055 128.424L144.864 123.983H146.055C146.756 126.777 148.372 128.875 150.84 128.875C152.58 128.875 153.912 128.066 153.912 126.299C153.912 124.559 152.716 123.885 150.17 122.982C146.756 121.787 144.989 120.433 144.989 117.471C144.989 114.225 147.43 112.357 150.98 112.357C153.036 112.357 154.807 112.878 156.189 113.742V117.634H155.091C154.558 115.346 153.226 113.454 150.976 113.454C149.302 113.454 148.329 114.412 148.329 115.84C148.329 117.28 149.33 117.993 151.813 118.923C155.298 120.114 157.353 121.429 157.353 124.582C157.353 127.996 154.776 129.996 150.813 129.996C148.372 130 146.371 129.358 145.055 128.424ZM158.996 128.424L158.832 123.983H160.024C160.724 126.777 162.367 128.875 164.824 128.875C166.552 128.875 167.88 128.066 167.88 126.299C167.88 124.559 166.661 123.885 164.178 122.982C160.721 121.787 158.953 120.433 158.953 117.471C158.953 114.225 161.406 112.357 164.945 112.357C167 112.357 168.771 112.878 170.169 113.742V117.634H169.071C168.549 115.346 167.191 113.454 164.945 113.454C163.271 113.454 162.34 114.412 162.34 115.84C162.34 117.28 163.298 117.993 165.782 118.923C169.293 120.114 171.294 121.429 171.294 124.582C171.294 127.996 168.744 129.996 164.781 129.996C162.367 130 160.339 129.358 158.996 128.424ZM141.995 126.108C141.995 127.205 142.24 127.902 143.05 127.902C143.529 127.902 143.984 127.75 144.339 127.587L144.529 128.287C143.595 129.385 142.377 130 140.897 130C139.13 130 137.989 128.93 137.674 127.163C136.646 128.521 134.972 129.93 132.617 129.93C130.039 129.93 128.338 128.354 128.338 125.777C128.338 123.049 130.3 121.885 132.71 121.021L137.576 119.254V116.541C137.576 114.676 136.961 113.361 135.33 113.361C133.808 113.361 132.901 113.746 132.422 114.416C133.423 114.649 133.999 115.443 133.999 116.443C133.999 117.829 133.037 118.732 131.558 118.732C130.172 118.732 129.296 117.829 129.296 116.416C129.296 113.715 132.064 112.36 135.673 112.36C139.772 112.36 141.991 113.843 141.991 117.638V126.108H141.995ZM93.7641 114.482C93.7641 116.058 94.6984 117.058 96.1077 117.058C97.6571 117.058 98.6304 116.058 98.6304 114.645C98.6304 113.193 97.7544 112.357 96.5048 112.357C94.7646 112.357 93.6395 113.579 92.3781 117.128L92.5027 112.357H91.763L86.0052 114.096V114.7L87.9362 115.863V127.198C87.9362 128.322 87.4145 128.513 85.9352 128.61V129.665H95.0799V128.61C93.1178 128.447 92.3781 128.256 92.3781 126.964V118.701C93.0906 116.7 94.2157 115.315 96.0804 114.217L93.7641 114.482Z" fill="#FFFEF2"/>
</g>
<defs>
<clipPath id="clip0">
<rect width="171" height="130" fill="white"/>
</clipPath>
</defs>
</svg>
