<?xml version="1.0" encoding="UTF-8"?>
<svg width="24px" height="18px" viewBox="0 0 24 18" version="1.1" xmlns="http://www.w3.org/2000/svg" xmlns:xlink="http://www.w3.org/1999/xlink">
    <title>icon / object / book-open</title>
    <g id="icon-/-object-/-book-open" stroke="none" stroke-width="1" fill="none" fill-rule="evenodd">
        <g fill="#017A9B" fill-rule="nonzero" id="🎨-icon-color">
            <path d="M22,5 L20,5 L20,3 L23,3 C23.5522847,3 24,3.44771525 24,4 L24,17 C24,17.5522847 23.5522847,18 23,18 L1,18 C0.44771525,18 0,17.5522847 0,17 L0,4 C0,3.44771525 0.44771525,3 1,3 L4,3 L4,5 L2,5 L2,16 L22,16 L22,5 Z M11,4.39661905 L4.66666667,2.36995238 L4.66666667,12.603381 L11,14.6300476 L11,4.39661905 Z M5.27621812,0.465104085 L12.3047757,2.71424252 C12.7189556,2.84678007 13,3.23179755 13,3.66666667 L13,16 C13,16.6774972 12.340489,17.1589089 11.6952243,16.9524241 L4.05711521,14.5082292 C3.22875551,14.2431541 2.66666667,13.4731192 2.66666667,12.603381 L2.66666667,2.36995238 C2.66666667,1.26538288 3.56209717,0.36995238 4.66666667,0.36995238 C4.87354886,0.36995238 5.07917852,0.402051413 5.27621812,0.465104085 Z M13,14.6300476 L19.3333333,12.603381 L19.3333333,2.36995238 L13,4.39661905 L13,14.6300476 Z M11.6952243,2.71424252 L18.7237819,0.465104085 C19.7758005,0.128458113 20.9015357,0.708382262 21.2381816,1.76040093 C21.3012343,1.95744053 21.3333333,2.16307018 21.3333333,2.36995238 L21.3333333,12.603381 C21.3333333,13.4731192 20.7712445,14.2431541 19.9428848,14.5082292 L12.3047757,16.9524241 C11.659511,17.1589089 11,16.6774972 11,16 L11,3.66666667 C11,3.23179755 11.2810444,2.84678007 11.6952243,2.71424252 Z"></path>
        </g>
    </g>
</svg>