<?xml version="1.0" encoding="UTF-8"?>
<svg width="20px" height="20px" viewBox="0 0 20 20" version="1.1" xmlns="http://www.w3.org/2000/svg" xmlns:xlink="http://www.w3.org/1999/xlink">
    <title>icon / object / Clock</title>
    <g id="icon-/-object-/-Clock" stroke="none" stroke-width="1" fill="none" fill-rule="evenodd">
        <g id="icon-/-object-/-clock" fill="#017A9B" fill-rule="nonzero">
            <path d="M10,0 C15.5228475,0 20,4.4771525 20,10 C20,15.5228475 15.5228475,20 10,20 C4.4771525,20 0,15.5228475 0,10 C0,4.4771525 4.4771525,0 10,0 Z M10,2 C5.581722,2 2,5.581722 2,10 C2,14.418278 5.581722,18 10,18 C14.418278,18 18,14.418278 18,10 C18,5.581722 14.418278,2 10,2 Z M10,4 C10.5522847,4 11,4.44771525 11,5 L11,5 L11,9.585 L13.7071068,12.2928932 C14.0675907,12.6533772 14.0953203,13.2206082 13.7902954,13.6128994 L13.7071068,13.7071068 C13.3165825,14.0976311 12.6834175,14.0976311 12.2928932,13.7071068 L12.2928932,13.7071068 L9.29289322,10.7071068 L9.29289322,10.7071068 L9.21968877,10.625449 C9.2173721,10.6225624 9.21507113,10.6196628 9.21278596,10.6167501 C9.20728448,10.6098424 9.20175344,10.602603 9.19633458,10.5953066 C9.17849009,10.5711307 9.1617187,10.546275 9.14606743,10.5206602 C9.13860692,10.5086131 9.13149883,10.4963944 9.12467117,10.4840621 C9.11379392,10.4642939 9.10337664,10.4438914 9.09365378,10.4230991 C9.08567905,10.4060985 9.07819642,10.3887956 9.07122549,10.371336 C9.06331574,10.3515792 9.05612249,10.3317977 9.04954668,10.3117364 C9.04472872,10.2968513 9.04009773,10.2814633 9.03584514,10.265993 C9.02983363,10.2444365 9.0246398,10.2227461 9.02016515,10.2007941 C9.01670217,10.1833753 9.01362808,10.165949 9.0110178,10.1484669 C9.00376119,10.1003621 9,10.0506203 9,10 L9.00396641,10.0892501 C9.00189498,10.0659949 9.00063489,10.042681 9.00018615,10.0193545 L9,10 L9,5 C9,4.44771525 9.44771525,4 10,4 Z" id="🎨-icon-color"></path>
        </g>
    </g>
</svg>