<?xml version="1.0" encoding="UTF-8"?>
<svg width="19px" height="18px" viewBox="0 0 19 18" version="1.1" xmlns="http://www.w3.org/2000/svg" xmlns:xlink="http://www.w3.org/1999/xlink">
    <title>icon / object / notepad</title>
    <g id="icon-/-object-/-notepad" stroke="none" stroke-width="1" fill="none" fill-rule="evenodd">
        <g fill="#017A9B" fill-rule="nonzero" id="🎨-icon-color">
            <path d="M14.1242373,0 C15.1914775,0 16,0.916707879 16,1.99607751 L16,1.99607751 L16,7 C16,7.55228475 15.5522847,8 15,8 C14.4477153,8 14,7.55228475 14,7 L14,7 L14,2 L2,2 L2,16 L8,16 C8.55228475,16 9,16.4477153 9,17 C9,17.5522847 8.55228475,18 8,18 L8,18 L1.87745985,18 C0.81105962,18 0,17.0816565 0,16.0066023 L0,16.0066023 L0,1.99339768 C0,0.917821247 0.80719548,0 1.8757627,0 L1.8757627,0 Z M17.009222,10 C18.107313,10 19,10.8972855 19,11.990778 L19,16.009222 C19,17.107313 18.1027145,18 17.009222,18 L12.990778,18 C11.892687,18 11,17.1027145 11,16.009222 L11,11.990778 C11,10.892687 11.8972855,10 12.990778,10 L17.009222,10 Z M17,12 L13,12 L13,16 L17,16 L17,12 Z M8,12 C8.55228475,12 9,12.4477153 9,13 C9,13.5522847 8.55228475,14 8,14 L8,14 L5,14 C4.44771525,14 4,13.5522847 4,13 C4,12.4477153 4.44771525,12 5,12 L5,12 Z M9,8 C9.55228475,8 10,8.44771525 10,9 C10,9.55228475 9.55228475,10 9,10 L9,10 L5,10 C4.44771525,10 4,9.55228475 4,9 C4,8.44771525 4.44771525,8 5,8 L5,8 Z M11,4 C11.5522847,4 12,4.44771525 12,5 C12,5.55228475 11.5522847,6 11,6 L11,6 L5,6 C4.44771525,6 4,5.55228475 4,5 C4,4.44771525 4.44771525,4 5,4 L5,4 Z"></path>
        </g>
    </g>
</svg>